<?xml version="1.0" encoding="UTF-8" standalone="no"?>
<!DOCTYPE svg PUBLIC "-//W3C//DTD SVG 1.1//EN"
 "http://www.w3.org/Graphics/SVG/1.1/DTD/svg11.dtd">
<!-- Generated by graphviz version 2.43.0 (0)
 -->
<!-- Title: %3 Pages: 1 -->
<svg width="709pt" height="326pt"
 viewBox="0.00 0.00 708.74 326.00" xmlns="http://www.w3.org/2000/svg" xmlns:xlink="http://www.w3.org/1999/xlink">
<g id="graph0" class="graph" transform="scale(1 1) rotate(0) translate(4 322)">
<title>%3</title>
<polygon fill="white" stroke="transparent" points="-4,4 -4,-322 704.74,-322 704.74,4 -4,4"/>
<g id="clust1" class="cluster">
<title>cluster_components</title>
<polygon fill="lightgrey" stroke="lightgrey" points="8,-91 8,-310 687,-310 687,-91 8,-91"/>
<text text-anchor="middle" x="347.5" y="-294.8" font-family="Times,serif" font-size="14.00">Components</text>
</g>
<g id="clust2" class="cluster">
<title>cluster_services</title>
<polygon fill="lightblue" stroke="lightblue" points="557,-8 557,-83 634,-83 634,-8 557,-8"/>
<text text-anchor="middle" x="595.5" y="-67.8" font-family="Times,serif" font-size="14.00">Services</text>
</g>
<!-- App_tsx -->
<g id="node1" class="node">
<title>App_tsx</title>
<path fill="lightgreen" stroke="black" d="M429.5,-279C429.5,-279 382.5,-279 382.5,-279 376.5,-279 370.5,-273 370.5,-267 370.5,-267 370.5,-255 370.5,-255 370.5,-249 376.5,-243 382.5,-243 382.5,-243 429.5,-243 429.5,-243 435.5,-243 441.5,-249 441.5,-255 441.5,-255 441.5,-267 441.5,-267 441.5,-273 435.5,-279 429.5,-279"/>
<text text-anchor="middle" x="406" y="-257.3" font-family="Times,serif" font-size="14.00">App.tsx</text>
</g>
<!-- RunSelector_tsx -->
<g id="node2" class="node">
<title>RunSelector_tsx</title>
<path fill="lightgreen" stroke="black" d="M545.5,-207C545.5,-207 440.5,-207 440.5,-207 434.5,-207 428.5,-201 428.5,-195 428.5,-195 428.5,-183 428.5,-183 428.5,-177 434.5,-171 440.5,-171 440.5,-171 545.5,-171 545.5,-171 551.5,-171 557.5,-177 557.5,-183 557.5,-183 557.5,-195 557.5,-195 557.5,-201 551.5,-207 545.5,-207"/>
<text text-anchor="middle" x="493" y="-185.3" font-family="Times,serif" font-size="14.00">RunSelector.tsx</text>
</g>
<!-- App_tsx&#45;&gt;RunSelector_tsx -->
<g id="edge1" class="edge">
<title>App_tsx&#45;&gt;RunSelector_tsx</title>
<path fill="none" stroke="black" d="M427.51,-242.7C438.46,-233.88 451.95,-223.03 463.82,-213.47"/>
<polygon fill="black" stroke="black" points="466.14,-216.1 471.74,-207.1 461.76,-210.65 466.14,-216.1"/>
</g>
<!-- RunInfo_tsx -->
<g id="node3" class="node">
<title>RunInfo_tsx</title>
<path fill="lightgreen" stroke="black" d="M197.5,-207C197.5,-207 122.5,-207 122.5,-207 116.5,-207 110.5,-201 110.5,-195 110.5,-195 110.5,-183 110.5,-183 110.5,-177 116.5,-171 122.5,-171 122.5,-171 197.5,-171 197.5,-171 203.5,-171 209.5,-177 209.5,-183 209.5,-183 209.5,-195 209.5,-195 209.5,-201 203.5,-207 197.5,-207"/>
<text text-anchor="middle" x="160" y="-185.3" font-family="Times,serif" font-size="14.00">RunInfo.tsx</text>
</g>
<!-- App_tsx&#45;&gt;RunInfo_tsx -->
<g id="edge2" class="edge">
<title>App_tsx&#45;&gt;RunInfo_tsx</title>
<path fill="none" stroke="black" d="M370.49,-249.98C334.84,-239.92 278.11,-223.87 219.39,-207.11"/>
<polygon fill="black" stroke="black" points="220.15,-203.68 209.57,-204.3 218.22,-210.41 220.15,-203.68"/>
</g>
<!-- Tabs_tsx -->
<g id="node4" class="node">
<title>Tabs_tsx</title>
<path fill="lightgreen" stroke="black" d="M80,-207C80,-207 28,-207 28,-207 22,-207 16,-201 16,-195 16,-195 16,-183 16,-183 16,-177 22,-171 28,-171 28,-171 80,-171 80,-171 86,-171 92,-177 92,-183 92,-183 92,-195 92,-195 92,-201 86,-207 80,-207"/>
<text text-anchor="middle" x="54" y="-185.3" font-family="Times,serif" font-size="14.00">Tabs.tsx</text>
</g>
<!-- App_tsx&#45;&gt;Tabs_tsx -->
<g id="edge3" class="edge">
<title>App_tsx&#45;&gt;Tabs_tsx</title>
<path fill="none" stroke="black" d="M370.48,-255.77C313.31,-248.54 197.61,-232.08 102,-207 101.9,-206.97 101.8,-206.95 101.7,-206.92"/>
<polygon fill="black" stroke="black" points="102.65,-203.55 92.07,-204.13 100.7,-210.28 102.65,-203.55"/>
</g>
<!-- WalkthroughViewer_tsx -->
<g id="node6" class="node">
<title>WalkthroughViewer_tsx</title>
<path fill="lightgreen" stroke="black" d="M398,-207C398,-207 240,-207 240,-207 234,-207 228,-201 228,-195 228,-195 228,-183 228,-183 228,-177 234,-171 240,-171 240,-171 398,-171 398,-171 404,-171 410,-177 410,-183 410,-183 410,-195 410,-195 410,-201 404,-207 398,-207"/>
<text text-anchor="middle" x="319" y="-185.3" font-family="Times,serif" font-size="14.00">WalkthroughViewer.tsx</text>
</g>
<!-- App_tsx&#45;&gt;WalkthroughViewer_tsx -->
<g id="edge4" class="edge">
<title>App_tsx&#45;&gt;WalkthroughViewer_tsx</title>
<path fill="none" stroke="black" d="M384.49,-242.7C373.54,-233.88 360.05,-223.03 348.18,-213.47"/>
<polygon fill="black" stroke="black" points="350.24,-210.65 340.26,-207.1 345.86,-216.1 350.24,-210.65"/>
</g>
<!-- Settings_tsx -->
<g id="node9" class="node">
<title>Settings_tsx</title>
<path fill="lightgreen" stroke="black" d="M666.5,-207C666.5,-207 587.5,-207 587.5,-207 581.5,-207 575.5,-201 575.5,-195 575.5,-195 575.5,-183 575.5,-183 575.5,-177 581.5,-171 587.5,-171 587.5,-171 666.5,-171 666.5,-171 672.5,-171 678.5,-177 678.5,-183 678.5,-183 678.5,-195 678.5,-195 678.5,-201 672.5,-207 666.5,-207"/>
<text text-anchor="middle" x="627" y="-185.3" font-family="Times,serif" font-size="14.00">Settings.tsx</text>
</g>
<!-- App_tsx&#45;&gt;Settings_tsx -->
<g id="edge5" class="edge">
<title>App_tsx&#45;&gt;Settings_tsx</title>
<path fill="none" stroke="black" d="M441.51,-248.75C474.87,-238.19 525.51,-222.15 565.45,-209.49"/>
<polygon fill="black" stroke="black" points="566.62,-212.8 575.1,-206.44 564.51,-206.12 566.62,-212.8"/>
</g>
<!-- api_ts -->
<g id="node10" class="node">
<title>api_ts</title>
<path fill="lightgreen" stroke="black" d="M611,-52C611,-52 579,-52 579,-52 573,-52 567,-46 567,-40 567,-40 567,-28 567,-28 567,-22 573,-16 579,-16 579,-16 611,-16 611,-16 617,-16 623,-22 623,-28 623,-28 623,-40 623,-40 623,-46 617,-52 611,-52"/>
<text text-anchor="middle" x="595" y="-30.3" font-family="Times,serif" font-size="14.00">api.ts</text>
</g>
<!-- App_tsx&#45;&gt;api_ts -->
<g id="edge9" class="edge">
<title>App_tsx&#45;&gt;api_ts</title>
<path fill="none" stroke="black" d="M441.65,-258.75C510.36,-255.51 657.07,-244.29 688,-207 727.11,-159.85 664.86,-93.7 624.72,-58.77"/>
<polygon fill="black" stroke="black" points="626.91,-56.03 617.03,-52.21 622.37,-61.36 626.91,-56.03"/>
</g>
<!-- RunSelector_tsx&#45;&gt;api_ts -->
<g id="edge10" class="edge">
<title>RunSelector_tsx&#45;&gt;api_ts</title>
<path fill="none" stroke="black" d="M546.05,-170.93C562.94,-162.78 579.85,-151.17 590,-135 603.59,-113.33 603.21,-83.54 600.43,-62.12"/>
<polygon fill="black" stroke="black" points="603.86,-61.4 598.87,-52.05 596.94,-62.47 603.86,-61.4"/>
</g>
<!-- CodeBlockWithValidation_tsx -->
<g id="node5" class="node">
<title>CodeBlockWithValidation_tsx</title>
<path fill="lightgreen" stroke="black" d="M411.5,-135C411.5,-135 212.5,-135 212.5,-135 206.5,-135 200.5,-129 200.5,-123 200.5,-123 200.5,-111 200.5,-111 200.5,-105 206.5,-99 212.5,-99 212.5,-99 411.5,-99 411.5,-99 417.5,-99 423.5,-105 423.5,-111 423.5,-111 423.5,-123 423.5,-123 423.5,-129 417.5,-135 411.5,-135"/>
<text text-anchor="middle" x="312" y="-113.3" font-family="Times,serif" font-size="14.00">CodeBlockWithValidation.tsx</text>
</g>
<!-- Tabs_tsx&#45;&gt;CodeBlockWithValidation_tsx -->
<g id="edge6" class="edge">
<title>Tabs_tsx&#45;&gt;CodeBlockWithValidation_tsx</title>
<path fill="none" stroke="black" d="M92.15,-174.13C95.47,-173.03 98.78,-171.97 102,-171 142.8,-158.66 188.65,-146.85 227.07,-137.53"/>
<polygon fill="black" stroke="black" points="228.29,-140.84 237.19,-135.09 226.64,-134.03 228.29,-140.84"/>
</g>
<!-- MarkdownViewer_tsx -->
<g id="node8" class="node">
<title>MarkdownViewer_tsx</title>
<path fill="lightgreen" stroke="black" d="M170.5,-135C170.5,-135 27.5,-135 27.5,-135 21.5,-135 15.5,-129 15.5,-123 15.5,-123 15.5,-111 15.5,-111 15.5,-105 21.5,-99 27.5,-99 27.5,-99 170.5,-99 170.5,-99 176.5,-99 182.5,-105 182.5,-111 182.5,-111 182.5,-123 182.5,-123 182.5,-129 176.5,-135 170.5,-135"/>
<text text-anchor="middle" x="99" y="-113.3" font-family="Times,serif" font-size="14.00">MarkdownViewer.tsx</text>
</g>
<!-- Tabs_tsx&#45;&gt;MarkdownViewer_tsx -->
<g id="edge7" class="edge">
<title>Tabs_tsx&#45;&gt;MarkdownViewer_tsx</title>
<path fill="none" stroke="black" d="M65.12,-170.7C70.36,-162.56 76.7,-152.69 82.48,-143.7"/>
<polygon fill="black" stroke="black" points="85.54,-145.41 88,-135.1 79.65,-141.62 85.54,-145.41"/>
</g>
<!-- CodeBlockWithValidation_tsx&#45;&gt;api_ts -->
<g id="edge11" class="edge">
<title>CodeBlockWithValidation_tsx&#45;&gt;api_ts</title>
<path fill="none" stroke="black" d="M371.67,-98.92C427.57,-82.92 509.43,-59.49 556.96,-45.89"/>
<polygon fill="black" stroke="black" points="558.19,-49.18 566.84,-43.06 556.26,-42.45 558.19,-49.18"/>
</g>
<!-- GapCard_tsx -->
<g id="node7" class="node">
<title>GapCard_tsx</title>
<path fill="lightgreen" stroke="black" d="M536,-135C536,-135 454,-135 454,-135 448,-135 442,-129 442,-123 442,-123 442,-111 442,-111 442,-105 448,-99 454,-99 454,-99 536,-99 536,-99 542,-99 548,-105 548,-111 548,-111 548,-123 548,-123 548,-129 542,-135 536,-135"/>
<text text-anchor="middle" x="495" y="-113.3" font-family="Times,serif" font-size="14.00">GapCard.tsx</text>
</g>
<!-- WalkthroughViewer_tsx&#45;&gt;GapCard_tsx -->
<g id="edge8" class="edge">
<title>WalkthroughViewer_tsx&#45;&gt;GapCard_tsx</title>
<path fill="none" stroke="black" d="M362.05,-170.88C386.33,-161.22 416.84,-149.09 442.51,-138.88"/>
<polygon fill="black" stroke="black" points="444.09,-142.02 452.09,-135.07 441.5,-135.51 444.09,-142.02"/>
</g>
<!-- WalkthroughViewer_tsx&#45;&gt;api_ts -->
<g id="edge12" class="edge">
<title>WalkthroughViewer_tsx&#45;&gt;api_ts</title>
<path fill="none" stroke="black" d="M410.16,-171.99C472.38,-160.33 545.54,-144.92 557,-135 578.22,-116.64 587.63,-85.12 591.77,-62.37"/>
<polygon fill="black" stroke="black" points="595.26,-62.74 593.38,-52.31 588.35,-61.64 595.26,-62.74"/>
</g>
</g>
</svg>
