<?xml version="1.0" encoding="UTF-8" standalone="no"?>
<!DOCTYPE svg PUBLIC "-//W3C//DTD SVG 1.1//EN"
 "http://www.w3.org/Graphics/SVG/1.1/DTD/svg11.dtd">
<!-- Generated by graphviz version 2.43.0 (0)
 -->
<!-- Title: %3 Pages: 1 -->
<svg width="883pt" height="467pt"
 viewBox="0.00 0.00 883.00 467.00" xmlns="http://www.w3.org/2000/svg" xmlns:xlink="http://www.w3.org/1999/xlink">
<g id="graph0" class="graph" transform="scale(1 1) rotate(0) translate(4 463)">
<title>%3</title>
<polygon fill="white" stroke="transparent" points="-4,4 -4,-463 879,-463 879,4 -4,4"/>
<g id="clust1" class="cluster">
<title>cluster_cli</title>
<polygon fill="lightgrey" stroke="lightgrey" points="8,-226 8,-301 78,-301 78,-226 8,-226"/>
<text text-anchor="middle" x="43" y="-285.8" font-family="Times,serif" font-size="14.00">Cli</text>
</g>
<g id="clust2" class="cluster">
<title>cluster_pipeline</title>
<polygon fill="lightgrey" stroke="lightgrey" points="177.5,-131 177.5,-206 258.5,-206 258.5,-131 177.5,-131"/>
<text text-anchor="middle" x="218" y="-190.8" font-family="Times,serif" font-size="14.00">Pipeline</text>
</g>
<g id="clust3" class="cluster">
<title>cluster_agents</title>
<polygon fill="lightgrey" stroke="lightgrey" points="358,-77 358,-314 615,-314 615,-77 358,-77"/>
<text text-anchor="middle" x="486.5" y="-298.8" font-family="Times,serif" font-size="14.00">Agents</text>
</g>
<g id="clust4" class="cluster">
<title>cluster_walkthroughs</title>
<polygon fill="lightgrey" stroke="lightgrey" points="98,-322 98,-451 544,-451 544,-322 98,-322"/>
<text text-anchor="middle" x="321" y="-435.8" font-family="Times,serif" font-size="14.00">Walkthroughs</text>
</g>
<g id="clust5" class="cluster">
<title>cluster_infrastructure</title>
<polygon fill="lightgrey" stroke="lightgrey" points="635,-8 635,-191 753,-191 753,-8 635,-8"/>
<text text-anchor="middle" x="694" y="-175.8" font-family="Times,serif" font-size="14.00">Infrastructure</text>
</g>
<g id="clust6" class="cluster">
<title>cluster_schemas</title>
<polygon fill="lightgrey" stroke="lightgrey" points="773,-116 773,-191 867,-191 867,-116 773,-116"/>
<text text-anchor="middle" x="820" y="-175.8" font-family="Times,serif" font-size="14.00">Schemas</text>
</g>
<!-- cli -->
<g id="node1" class="node">
<title>cli</title>
<path fill="lightblue" stroke="black" d="M58,-270C58,-270 28,-270 28,-270 22,-270 16,-264 16,-258 16,-258 16,-246 16,-246 16,-240 22,-234 28,-234 28,-234 58,-234 58,-234 64,-234 70,-240 70,-246 70,-246 70,-258 70,-258 70,-264 64,-270 58,-270"/>
<text text-anchor="middle" x="43" y="-248.3" font-family="Times,serif" font-size="14.00">cli</text>
</g>
<!-- pipeline_runner -->
<g id="node2" class="node">
<title>pipeline_runner</title>
<path fill="lightblue" stroke="black" d="M238.5,-175C238.5,-175 197.5,-175 197.5,-175 191.5,-175 185.5,-169 185.5,-163 185.5,-163 185.5,-151 185.5,-151 185.5,-145 191.5,-139 197.5,-139 197.5,-139 238.5,-139 238.5,-139 244.5,-139 250.5,-145 250.5,-151 250.5,-151 250.5,-163 250.5,-163 250.5,-169 244.5,-175 238.5,-175"/>
<text text-anchor="middle" x="218" y="-153.3" font-family="Times,serif" font-size="14.00">runner</text>
</g>
<!-- cli&#45;&gt;pipeline_runner -->
<g id="edge1" class="edge">
<title>cli&#45;&gt;pipeline_runner</title>
<path fill="none" stroke="black" d="M70.27,-237.57C98.53,-222.06 143.8,-197.2 176.59,-179.19"/>
<polygon fill="black" stroke="black" points="178.4,-182.19 185.48,-174.31 175.03,-176.05 178.4,-182.19"/>
</g>
<!-- walkthroughs_walkthrough_generate_agent -->
<g id="node7" class="node">
<title>walkthroughs_walkthrough_generate_agent</title>
<path fill="lightblue" stroke="black" d="M318,-366C318,-366 118,-366 118,-366 112,-366 106,-360 106,-354 106,-354 106,-342 106,-342 106,-336 112,-330 118,-330 118,-330 318,-330 318,-330 324,-330 330,-336 330,-342 330,-342 330,-354 330,-354 330,-360 324,-366 318,-366"/>
<text text-anchor="middle" x="218" y="-344.3" font-family="Times,serif" font-size="14.00">walkthrough_generate_agent</text>
</g>
<!-- cli&#45;&gt;walkthroughs_walkthrough_generate_agent -->
<g id="edge2" class="edge">
<title>cli&#45;&gt;walkthroughs_walkthrough_generate_agent</title>
<path fill="none" stroke="black" d="M70.27,-266.58C98.18,-282.07 142.69,-306.77 175.38,-324.9"/>
<polygon fill="black" stroke="black" points="173.82,-328.04 184.26,-329.83 177.22,-321.92 173.82,-328.04"/>
</g>
<!-- walkthroughs_walkthrough_audit_agent -->
<g id="node8" class="node">
<title>walkthroughs_walkthrough_audit_agent</title>
<path fill="lightblue" stroke="black" d="M304.5,-420C304.5,-420 131.5,-420 131.5,-420 125.5,-420 119.5,-414 119.5,-408 119.5,-408 119.5,-396 119.5,-396 119.5,-390 125.5,-384 131.5,-384 131.5,-384 304.5,-384 304.5,-384 310.5,-384 316.5,-390 316.5,-396 316.5,-396 316.5,-408 316.5,-408 316.5,-414 310.5,-420 304.5,-420"/>
<text text-anchor="middle" x="218" y="-398.3" font-family="Times,serif" font-size="14.00">walkthrough_audit_agent</text>
</g>
<!-- cli&#45;&gt;walkthroughs_walkthrough_audit_agent -->
<g id="edge3" class="edge">
<title>cli&#45;&gt;walkthroughs_walkthrough_audit_agent</title>
<path fill="none" stroke="black" d="M46.72,-270.12C51.78,-297.21 65.27,-347.98 98,-375 101.83,-378.16 105.96,-380.97 110.3,-383.47"/>
<polygon fill="black" stroke="black" points="108.97,-386.72 119.47,-388.16 112.16,-380.49 108.97,-386.72"/>
</g>
<!-- repository_manager -->
<g id="node11" class="node">
<title>repository_manager</title>
<path fill="lightblue" stroke="black" d="M722,-52C722,-52 666,-52 666,-52 660,-52 654,-46 654,-40 654,-40 654,-28 654,-28 654,-22 660,-16 666,-16 666,-16 722,-16 722,-16 728,-16 734,-22 734,-28 734,-28 734,-40 734,-40 734,-46 728,-52 722,-52"/>
<text text-anchor="middle" x="694" y="-30.3" font-family="Times,serif" font-size="14.00">manager</text>
</g>
<!-- cli&#45;&gt;repository_manager -->
<g id="edge4" class="edge">
<title>cli&#45;&gt;repository_manager</title>
<path fill="none" stroke="black" d="M47.33,-233.82C53.12,-207.06 67.48,-156.99 98,-127 187.12,-39.41 235.41,-44.24 358,-20 470.05,2.16 501.23,-9.87 615,-20 624.36,-20.83 634.28,-22.22 643.79,-23.8"/>
<polygon fill="black" stroke="black" points="643.45,-27.3 653.9,-25.58 644.66,-20.4 643.45,-27.3"/>
</g>
<!-- agents_extraction_agent -->
<g id="node3" class="node">
<title>agents_extraction_agent</title>
<path fill="lightblue" stroke="black" d="M543,-283C543,-283 430,-283 430,-283 424,-283 418,-277 418,-271 418,-271 418,-259 418,-259 418,-253 424,-247 430,-247 430,-247 543,-247 543,-247 549,-247 555,-253 555,-259 555,-259 555,-271 555,-271 555,-277 549,-283 543,-283"/>
<text text-anchor="middle" x="486.5" y="-261.3" font-family="Times,serif" font-size="14.00">extraction_agent</text>
</g>
<!-- pipeline_runner&#45;&gt;agents_extraction_agent -->
<g id="edge7" class="edge">
<title>pipeline_runner&#45;&gt;agents_extraction_agent</title>
<path fill="none" stroke="black" d="M244.38,-175.16C271.34,-193.6 315.78,-221.72 358,-238 373.79,-244.09 391.25,-248.93 408.04,-252.73"/>
<polygon fill="black" stroke="black" points="407.32,-256.15 417.83,-254.84 408.8,-249.31 407.32,-256.15"/>
</g>
<!-- agents_api_signature_validation_agent -->
<g id="node4" class="node">
<title>agents_api_signature_validation_agent</title>
<path fill="lightblue" stroke="black" d="M593.5,-229C593.5,-229 379.5,-229 379.5,-229 373.5,-229 367.5,-223 367.5,-217 367.5,-217 367.5,-205 367.5,-205 367.5,-199 373.5,-193 379.5,-193 379.5,-193 593.5,-193 593.5,-193 599.5,-193 605.5,-199 605.5,-205 605.5,-205 605.5,-217 605.5,-217 605.5,-223 599.5,-229 593.5,-229"/>
<text text-anchor="middle" x="486.5" y="-207.3" font-family="Times,serif" font-size="14.00">api_signature_validation_agent</text>
</g>
<!-- pipeline_runner&#45;&gt;agents_api_signature_validation_agent -->
<g id="edge8" class="edge">
<title>pipeline_runner&#45;&gt;agents_api_signature_validation_agent</title>
<path fill="none" stroke="black" d="M250.62,-163.41C284.09,-170.19 338.63,-181.24 386.73,-190.99"/>
<polygon fill="black" stroke="black" points="386.08,-194.43 396.57,-192.98 387.47,-187.56 386.08,-194.43"/>
</g>
<!-- agents_code_example_validation_agent -->
<g id="node5" class="node">
<title>agents_code_example_validation_agent</title>
<path fill="lightblue" stroke="black" d="M595,-175C595,-175 378,-175 378,-175 372,-175 366,-169 366,-163 366,-163 366,-151 366,-151 366,-145 372,-139 378,-139 378,-139 595,-139 595,-139 601,-139 607,-145 607,-151 607,-151 607,-163 607,-163 607,-169 601,-175 595,-175"/>
<text text-anchor="middle" x="486.5" y="-153.3" font-family="Times,serif" font-size="14.00">code_example_validation_agent</text>
</g>
<!-- pipeline_runner&#45;&gt;agents_code_example_validation_agent -->
<g id="edge9" class="edge">
<title>pipeline_runner&#45;&gt;agents_code_example_validation_agent</title>
<path fill="none" stroke="black" d="M250.62,-157C276.94,-157 316.3,-157 355.31,-157"/>
<polygon fill="black" stroke="black" points="355.75,-160.5 365.75,-157 355.75,-153.5 355.75,-160.5"/>
</g>
<!-- agents_clarity_agent -->
<g id="node6" class="node">
<title>agents_clarity_agent</title>
<path fill="lightblue" stroke="black" d="M529.5,-121C529.5,-121 443.5,-121 443.5,-121 437.5,-121 431.5,-115 431.5,-109 431.5,-109 431.5,-97 431.5,-97 431.5,-91 437.5,-85 443.5,-85 443.5,-85 529.5,-85 529.5,-85 535.5,-85 541.5,-91 541.5,-97 541.5,-97 541.5,-109 541.5,-109 541.5,-115 535.5,-121 529.5,-121"/>
<text text-anchor="middle" x="486.5" y="-99.3" font-family="Times,serif" font-size="14.00">clarity_agent</text>
</g>
<!-- pipeline_runner&#45;&gt;agents_clarity_agent -->
<g id="edge10" class="edge">
<title>pipeline_runner&#45;&gt;agents_clarity_agent</title>
<path fill="none" stroke="black" d="M250.62,-150.59C292.54,-142.1 367.52,-126.91 421.49,-115.97"/>
<polygon fill="black" stroke="black" points="422.21,-119.4 431.32,-113.98 420.82,-112.53 422.21,-119.4"/>
</g>
<!-- cache_manager -->
<g id="node10" class="node">
<title>cache_manager</title>
<path fill="lightblue" stroke="black" d="M722,-106C722,-106 666,-106 666,-106 660,-106 654,-100 654,-94 654,-94 654,-82 654,-82 654,-76 660,-70 666,-70 666,-70 722,-70 722,-70 728,-70 734,-76 734,-82 734,-82 734,-94 734,-94 734,-100 728,-106 722,-106"/>
<text text-anchor="middle" x="694" y="-84.3" font-family="Times,serif" font-size="14.00">manager</text>
</g>
<!-- pipeline_runner&#45;&gt;cache_manager -->
<g id="edge6" class="edge">
<title>pipeline_runner&#45;&gt;cache_manager</title>
<path fill="none" stroke="black" d="M240.35,-138.92C266.22,-118.3 312.1,-85.79 358,-73 456.48,-45.55 577.48,-62.82 643.77,-76.37"/>
<polygon fill="black" stroke="black" points="643.42,-79.87 653.93,-78.51 644.86,-73.02 643.42,-79.87"/>
</g>
<!-- pipeline_runner&#45;&gt;repository_manager -->
<g id="edge5" class="edge">
<title>pipeline_runner&#45;&gt;repository_manager</title>
<path fill="none" stroke="black" d="M236.27,-138.82C260.72,-114.45 308.04,-72.16 358,-54 454.42,-18.95 576.68,-22.65 643.63,-28.38"/>
<polygon fill="black" stroke="black" points="643.61,-31.9 653.88,-29.31 644.24,-24.92 643.61,-31.9"/>
</g>
<!-- hooks_manager -->
<g id="node12" class="node">
<title>hooks_manager</title>
<path fill="lightblue" stroke="black" d="M722,-160C722,-160 666,-160 666,-160 660,-160 654,-154 654,-148 654,-148 654,-136 654,-136 654,-130 660,-124 666,-124 666,-124 722,-124 722,-124 728,-124 734,-130 734,-136 734,-136 734,-148 734,-148 734,-154 728,-160 722,-160"/>
<text text-anchor="middle" x="694" y="-138.3" font-family="Times,serif" font-size="14.00">manager</text>
</g>
<!-- agents_extraction_agent&#45;&gt;hooks_manager -->
<g id="edge11" class="edge">
<title>agents_extraction_agent&#45;&gt;hooks_manager</title>
<path fill="none" stroke="black" d="M555.24,-259.38C575.54,-255.47 597.14,-248.91 615,-238 642.58,-221.15 664.69,-190.93 678.23,-168.89"/>
<polygon fill="black" stroke="black" points="681.41,-170.39 683.5,-160 675.39,-166.82 681.41,-170.39"/>
</g>
<!-- agents_api_signature_validation_agent&#45;&gt;hooks_manager -->
<g id="edge12" class="edge">
<title>agents_api_signature_validation_agent&#45;&gt;hooks_manager</title>
<path fill="none" stroke="black" d="M586.44,-192.98C596.2,-190.33 605.86,-187.35 615,-184 628.71,-178.97 642.98,-171.9 655.51,-164.99"/>
<polygon fill="black" stroke="black" points="657.32,-167.99 664.29,-160.01 653.87,-161.89 657.32,-167.99"/>
</g>
<!-- agents_code_example_validation_agent&#45;&gt;hooks_manager -->
<g id="edge13" class="edge">
<title>agents_code_example_validation_agent&#45;&gt;hooks_manager</title>
<path fill="none" stroke="black" d="M607.04,-148.27C619.88,-147.34 632.37,-146.43 643.66,-145.6"/>
<polygon fill="black" stroke="black" points="643.96,-149.09 653.67,-144.87 643.45,-142.11 643.96,-149.09"/>
</g>
<!-- agents_clarity_agent&#45;&gt;hooks_manager -->
<g id="edge14" class="edge">
<title>agents_clarity_agent&#45;&gt;hooks_manager</title>
<path fill="none" stroke="black" d="M541.76,-113.3C573.39,-119.3 612.96,-126.81 643.69,-132.64"/>
<polygon fill="black" stroke="black" points="643.28,-136.13 653.75,-134.55 644.58,-129.25 643.28,-136.13"/>
</g>
<!-- walkthroughs_walkthrough_generate_agent&#45;&gt;hooks_manager -->
<g id="edge15" class="edge">
<title>walkthroughs_walkthrough_generate_agent&#45;&gt;hooks_manager</title>
<path fill="none" stroke="black" d="M311.18,-366.02C397.66,-377.56 526.56,-380.42 615,-318 664.13,-283.32 682.73,-210.45 689.44,-170.21"/>
<polygon fill="black" stroke="black" points="692.92,-170.66 690.97,-160.25 686,-169.6 692.92,-170.66"/>
</g>
<!-- walkthroughs_mcp_server -->
<g id="node9" class="node">
<title>walkthroughs_mcp_server</title>
<path fill="lightblue" stroke="black" d="M524,-420C524,-420 449,-420 449,-420 443,-420 437,-414 437,-408 437,-408 437,-396 437,-396 437,-390 443,-384 449,-384 449,-384 524,-384 524,-384 530,-384 536,-390 536,-396 536,-396 536,-408 536,-408 536,-414 530,-420 524,-420"/>
<text text-anchor="middle" x="486.5" y="-398.3" font-family="Times,serif" font-size="14.00">mcp_server</text>
</g>
<!-- walkthroughs_walkthrough_audit_agent&#45;&gt;walkthroughs_mcp_server -->
<g id="edge16" class="edge">
<title>walkthroughs_walkthrough_audit_agent&#45;&gt;walkthroughs_mcp_server</title>
<path fill="none" stroke="black" d="M316.72,-402C353.58,-402 394.36,-402 426.6,-402"/>
<polygon fill="black" stroke="black" points="426.75,-405.5 436.75,-402 426.75,-398.5 426.75,-405.5"/>
</g>
<!-- schemas -->
<g id="node13" class="node">
<title>schemas</title>
<path fill="lightblue" stroke="black" d="M847,-160C847,-160 793,-160 793,-160 787,-160 781,-154 781,-148 781,-148 781,-136 781,-136 781,-130 787,-124 793,-124 793,-124 847,-124 847,-124 853,-124 859,-130 859,-136 859,-136 859,-148 859,-148 859,-154 853,-160 847,-160"/>
<text text-anchor="middle" x="820" y="-138.3" font-family="Times,serif" font-size="14.00">schemas</text>
</g>
<!-- hooks_manager&#45;&gt;schemas -->
<g id="edge17" class="edge">
<title>hooks_manager&#45;&gt;schemas</title>
<path fill="none" stroke="black" d="M734.23,-142C745.76,-142 758.5,-142 770.53,-142"/>
<polygon fill="black" stroke="black" points="770.87,-145.5 780.87,-142 770.87,-138.5 770.87,-145.5"/>
</g>
</g>
</svg>
